<?xml version="1.0" encoding="utf-8"?>
<!-- Generator: Adobe Illustrator 27.2.0, SVG Export Plug-In . SVG Version: 6.00 Build 0)  -->
<svg version="1.1" id="Layer_1" xmlns="http://www.w3.org/2000/svg" xmlns:xlink="http://www.w3.org/1999/xlink" x="0px" y="0px"
	 viewBox="0 0 40 40" style="enable-background:new 0 0 40 40;" xml:space="preserve">
<style type="text/css">
	.st0{filter:url(#alpha);}
	.st1{opacity:0.5098;}
	.st2{opacity:0.502;}
	.st3{mask:url(#mask0_00000049190179627535099300000013416302140214082181_);}
	.st4{fill:#FCCD47;}
	.st5{fill:#FFFFFF;}
	.st6{fill:#FFE45C;}
	.st7{clip-path:url(#SVGID_00000033348114269472254580000001022125681342656139_);}
	.st8{fill:#C8F0FF;}
	.st9{clip-path:url(#SVGID_00000155110818793489921820000009814972305506408850_);}
	.st10{fill:#92D0F7;}
	.st11{fill:#C2F4FF;}
	.st12{stroke:#000000;stroke-width:5.362150e-02;stroke-miterlimit:10;}
	.st13{fill:#FFFFFF;stroke:#000000;stroke-width:5.362150e-02;stroke-miterlimit:10;}
	.st14{fill:none;stroke:#000000;stroke-width:0.2681;stroke-miterlimit:10;}
	.st15{stroke:#000000;stroke-width:5.362146e-02;stroke-miterlimit:10;}
	.st16{fill:#F4A721;}
</style>
<filter  filterUnits="objectBoundingBox" height="100%" id="alpha" width="100%" x="0%" y="0%">
	<feColorMatrix  in="SourceGraphic" type="matrix" values="0 0 0 0 1 0 0 0 0 1 0 0 0 0 1 0 0 0 1 0"></feColorMatrix>
</filter>
<defs>
	<filter id="Adobe_OpacityMaskFilter" filterUnits="userSpaceOnUse" x="-1.5" y="0.3" width="40" height="40">
		<feColorMatrix  type="matrix" values="1 0 0 0 0  0 1 0 0 0  0 0 1 0 0  0 0 0 1 0"/>
	</filter>
</defs>
<mask maskUnits="userSpaceOnUse" x="-1.5" y="0.3" width="40" height="40" id="mask0_00000049190179627535099300000013416302140214082181_">
	<g class="st0">
		<g>
			<rect x="-1.5" y="0.3" class="st1" width="40" height="40"/>
		</g>
	</g>
	<g class="st0">
		<g>
			<rect x="-1.5" y="0.3" class="st2" width="40" height="40"/>
		</g>
	</g>
</mask>
<g id="surface1" class="st3">
	<path class="st4" d="M27.8,17.6c-4.6,9.4-12.9,6.9-12.9,6.9c0-0.8,0.1-1.7,0.2-2.5c0.9,0.3,1.8,0.5,2.8,0.5c3.9,0,7.1-2.6,7.9-6
		c0.3,0.1,0.7,0.3,1,0.5C27.2,17.2,27.5,17.4,27.8,17.6z"/>
	<path class="st5" d="M25.8,16.5c-0.8,3.5-4.1,6-7.9,6c-1,0-1.9-0.2-2.8-0.5c0.5-2.4,2-4.5,4.2-5.6C21.3,15.5,23.7,15.5,25.8,16.5z"
		/>
	<path d="M29.6,19.3c-3.4,9.8-14.2,8.4-14.2,8.4c-0.3-1-0.5-2.1-0.6-3.2c0,0,8.3,2.5,12.9-6.9c0.4,0.3,0.8,0.7,1.2,1
		C29.2,18.9,29.4,19.1,29.6,19.3z"/>
	<path class="st4" d="M32,29.6c-0.2,0.7-0.5,1.4-0.8,2c-0.2,0.3-0.3,0.6-0.5,0.8c-0.3,0.5-0.6,0.8-0.8,1c-0.5,0.5-1.2,1-1.8,1.3
		c-1.1,0.5-3.2,0.8-5.4,0.1c-1.9-0.5-3.9-1.8-4.3-2.3c0.1,0,7.4,2.6,14-7.3C32.5,25.9,32.5,27.8,32,29.6z"/>
	<path d="M32.4,25.3c-6.6,9.9-13.9,7.3-14,7.3c-0.1-0.1-0.2-0.2-0.4-0.4c-0.6-0.6-1.1-1.3-1.5-2.1c1.1,0.2,9.5,1.2,14.8-8.2
		c0.1,0.2,0.2,0.3,0.2,0.5c0.1,0.2,0.2,0.5,0.3,0.7C32.1,23.9,32.3,24.6,32.4,25.3z"/>
	<path class="st4" d="M31.3,21.9c-5.4,9.4-13.7,8.4-14.8,8.2c-0.2-0.3-0.3-0.6-0.5-0.9c-0.2-0.5-0.5-1-0.6-1.6
		c0,0,10.8,1.4,14.2-8.4c0.3,0.3,0.5,0.7,0.8,1C30.8,20.9,31.1,21.4,31.3,21.9L31.3,21.9L31.3,21.9z"/>
	<path class="st6" d="M26.5,15.6c0,0.5-0.1,1.1-0.2,1.6c-0.8,3.2-4.1,5.7-7.9,5.7c-0.9,0-1.9-0.1-2.8-0.4c-3.1-1-5.3-3.7-5.3-6.8
		c0-2.7,1.6-5,4-6.3c1.3-0.7,2.7-1,4.2-1c0.7,0,1.3,0.1,2,0.2C23.8,9.3,26.5,12.2,26.5,15.6z"/>
	<path d="M31.7,32.6l-1-0.2c0.2-0.2,0.3-0.5,0.5-0.8L31.7,32.6z"/>
	<g>
		<g>
			<defs>
				<rect id="SVGID_1_" x="-1.5" y="0.3" width="40" height="40"/>
			</defs>
			<clipPath id="SVGID_00000173876097023433346210000011643846329950207106_">
				<use xlink:href="#SVGID_1_"  style="overflow:visible;"/>
			</clipPath>
			<g id="surface5" style="clip-path:url(#SVGID_00000173876097023433346210000011643846329950207106_);">
				<path class="st8" d="M34.1,15.9c-2.7,0.2-4.4,1.9-5.1,2.7c-0.4-0.4-0.8-0.7-1.2-1.1c-0.3-0.2-0.6-0.4-1-0.6
					c-0.1-5.8,6-4.5,6-4.5S34,14.1,34.1,15.9z"/>
			</g>
		</g>
	</g>
	<g>
		<g>
			<defs>
				<rect id="SVGID_00000155828727453849311860000002046961243053299586_" x="-1.5" y="0.3" width="40" height="40"/>
			</defs>
			<clipPath id="SVGID_00000092417645356698558490000011018727494239983747_">
				<use xlink:href="#SVGID_00000155828727453849311860000002046961243053299586_"  style="overflow:visible;"/>
			</clipPath>
			<g id="surface8" style="clip-path:url(#SVGID_00000092417645356698558490000011018727494239983747_);">
				<path class="st10" d="M31.6,22.5c-0.1-0.2-0.2-0.3-0.2-0.5c3-0.6,2.8-6,2.8-6c0.8-0.1,1.6,0,2.4,0.2
					C36.5,16.1,37.3,22.4,31.6,22.5z"/>
			</g>
		</g>
	</g>
	<path class="st11" d="M31.3,21.9L31.3,21.9c-0.3-0.6-0.6-1.1-0.9-1.6c-0.2-0.4-0.5-0.7-0.8-1c-0.2-0.2-0.4-0.5-0.6-0.7
		c0.7-0.9,2.4-2.5,5.1-2.7C34.1,15.9,34.3,21.3,31.3,21.9z"/>
	<path class="st6" d="M15.4,10.4c0,0-0.1-2.5,0.6-3.2c0.1,0.3,0.2,0.6,0.3,1c0.1,0.4,0.3,0.7,0.5,0.8"/>
	<path class="st6" d="M17.5,8.9c-0.4-0.3-0.7-1.3-0.7-1.3l-0.5,0.6l-0.2,1.5"/>
	<path class="st12" d="M15.2,15.6c0-1.6-0.8-3-1.7-3c-0.9,0-1.7,1.3-1.7,3c0,1.6,0.8,3,1.7,3C14.4,18.6,15.2,17.2,15.2,15.6z"/>
	<path class="st12" d="M22.2,15.1c0-1.6-0.8-3-1.7-3c-0.9,0-1.7,1.3-1.7,3c0,1.6,0.8,3,1.7,3C21.5,18,22.2,16.7,22.2,15.1z"/>
	<path class="st13" d="M14.2,14.9c0-0.7-0.4-1.3-0.8-1.3c-0.4,0-0.8,0.6-0.8,1.3c0,0.7,0.4,1.3,0.8,1.3
		C13.9,16.2,14.2,15.6,14.2,14.9z"/>
	<path class="st13" d="M21.1,14.5c0-0.7-0.4-1.3-0.8-1.3c-0.4,0-0.8,0.6-0.8,1.3c0,0.7,0.4,1.3,0.8,1.3
		C20.7,15.8,21.1,15.3,21.1,14.5z"/>
	<path class="st14" d="M14.2,9.4c0,0-1.1-6.5-3.9-3.3"/>
	<path class="st14" d="M17.2,3.7c0.1-0.1,0.2-0.2,0.2-0.2c2.1-1.6,2.3,4,2.4,4.9"/>
	<path class="st12" d="M10.4,5.9c-0.4-0.1-0.8,0.4-0.9,1C9.4,7.5,9.6,8.1,10,8.1s0.8-0.4,0.9-1C11,6.5,10.8,6,10.4,5.9z"/>
	<path class="st15" d="M17.3,3.6c-0.4-0.1-0.9,0.3-1.1,0.8s0,1.2,0.4,1.3c0.4,0.1,0.9-0.2,1.1-0.8C17.9,4.3,17.7,3.7,17.3,3.6z"/>
	<path class="st16" d="M16.5,25.7l-3.4,2.6l-3.9-1.6l-0.5-4.2l3.4-2.6l3.9,1.6L16.5,25.7z"/>
	<path class="st16" d="M21,31.5l-3.4,2.6l-3.9-1.6l-0.5-4.2l3.4-2.6l3.9,1.6L21,31.5z"/>
	<path class="st16" d="M13.7,32.4L10.3,35l-3.9-1.6l-0.5-4.2l3.4-2.6l3.9,1.6L13.7,32.4z"/>
	<path class="st4" d="M12.2,31.8l-2.1,1.6l-2.4-1l-0.3-2.6l2.1-1.6l2.4,1L12.2,31.8z"/>
	<path class="st4" d="M15,25l-2.1,1.6l-2.4-1L10.2,23l2.1-1.6l2.4,1L15,25z"/>
	<path class="st4" d="M19.5,30.9l-2.1,1.6l-2.4-1l-0.3-2.6l2.1-1.6l2.4,1L19.5,30.9z"/>
	<path d="M21.8,8.2C21.8,8.2,21.7,8.3,21.8,8.2c-0.3,0.2-0.6,0.2-0.8,0.1c-0.3-0.1-0.5-0.3-0.6-0.5c-0.1-0.2-0.1-0.5,0-0.8
		c0.1-0.3,0.3-0.5,0.5-0.6c0.2-0.1,0.5-0.2,0.8-0.1c0.3,0.1,0.5,0.3,0.6,0.5c0,0,0,0,0,0.1C22.2,7,22.1,7,22,7.1
		c-0.1,0.1-0.1,0.1-0.2,0.1c0,0,0,0,0,0c0,0,0-0.1-0.1-0.1c0-0.1-0.1-0.1-0.1-0.1c-0.1-0.1-0.1-0.1-0.2-0.1c-0.1,0-0.3,0-0.4,0
		C21,7,20.9,7.1,20.9,7.2c0,0.1,0,0.3,0,0.4s0.1,0.2,0.3,0.3c0.1,0,0.2,0,0.2,0c0.1,0,0.1,0,0.2-0.1c0,0,0.1,0,0.1,0c0,0,0,0,0,0
		c0,0,0,0.1,0.1,0.2C21.7,8.1,21.8,8.2,21.8,8.2z"/>
	<path d="M22.9,8.4c-0.1,0.2-0.2,0.3-0.4,0.4c-0.2,0.1-0.4,0.1-0.6,0c0,0,0,0,0,0c0,0,0-0.1-0.1-0.2s0-0.2,0-0.3c0,0,0,0,0,0
		c0.1,0,0.2,0,0.3,0c0.1,0,0.2-0.1,0.2-0.1c0-0.1,0-0.2,0-0.2c-0.1-0.2-0.1-0.3-0.1-0.3c0-0.1,0-0.2,0-0.3c0.1-0.2,0.2-0.3,0.4-0.3
		c0.2,0,0.4,0,0.5,0l0,0c0,0,0,0,0,0c0,0.1,0,0.3,0,0.4c0,0,0,0,0,0c0,0,0,0,0,0c0,0,0,0,0,0c0,0,0,0,0,0c0,0,0,0,0,0
		c-0.1,0-0.1,0-0.2,0c-0.1,0-0.1,0-0.1,0.1c0,0.1,0,0.1,0,0.2c0,0.2,0.1,0.3,0.1,0.3C23,8.2,22.9,8.3,22.9,8.4z"/>
	<path d="M25.2,9.4c-0.2,0.3-0.4,0.4-0.7,0.5c-0.3,0-0.5,0-0.8-0.2c-0.3-0.2-0.5-0.4-0.5-0.8c0-0.3,0-0.6,0.2-0.9
		c0.2-0.4,0.6-0.6,1-0.6c0.4-0.1,0.8,0.1,1.2,0.3c0,0,0,0.1,0,0.1c-0.1,0.3-0.1,0.5-0.1,0.5c0,0-0.1,0.1-0.1,0c0,0,0,0,0,0
		c-0.1-0.1-0.3-0.2-0.4-0.2c-0.2-0.1-0.3-0.1-0.5,0c0,0,0,0-0.1,0c0,0,0,0,0,0c0,0,0,0,0,0c0,0,0,0,0,0c0.1,0,0.3,0.1,0.4,0.2
		c0.2,0.1,0.3,0.3,0.4,0.5C25.3,9,25.3,9.2,25.2,9.4z M24.5,9c0.1-0.1,0.1-0.2,0.1-0.3s-0.1-0.2-0.2-0.2c-0.1-0.1-0.2-0.1-0.3-0.1
		c-0.1,0-0.2,0.1-0.2,0.2c-0.1,0.1-0.1,0.2-0.1,0.3c0,0.1,0.1,0.2,0.2,0.2c0.1,0.1,0.2,0.1,0.3,0.1C24.4,9.2,24.5,9.1,24.5,9z"/>
	<path d="M25.4,11C25.4,11,25.4,11,25.4,11c-0.1,0-0.1,0-0.2,0c-0.1-0.1-0.1-0.1-0.2-0.2c-0.1-0.1-0.2-0.2-0.2-0.2c0,0,0-0.1,0-0.1
		l0,0c0.4-0.4,0.7-0.6,0.7-0.7l0.5-0.4c0,0,0-0.1,0-0.1c0,0-0.1-0.1-0.1-0.1c0,0-0.1,0-0.1-0.1c0,0,0-0.1,0-0.1c0,0,0.1-0.1,0.2-0.2
		s0.1-0.1,0.2-0.2c0,0,0.1,0,0.1,0c0.2,0.1,0.4,0.1,0.6,0.1c0,0,0.1,0,0.1,0c0,0,0,0,0,0c0,0,0.1,0.1,0.1,0.2c0,0.1,0.1,0.1,0.1,0.2
		c0,0,0,0,0,0.1c0,0,0,0,0,0c-0.1,0.1-0.3,0.3-0.7,0.6c-0.1,0.1-0.3,0.3-0.5,0.5C25.7,10.7,25.6,10.9,25.4,11z"/>
	<path d="M26.9,12.4c-0.1,0.1-0.3,0.1-0.5,0.1c-0.2,0-0.3-0.2-0.5-0.5c0,0,0-0.1-0.1-0.1c0,0,0-0.1-0.1-0.1
		c-0.2-0.3-0.3-0.5-0.3-0.6c0,0,0,0,0-0.1c0.1-0.1,0.2-0.1,0.4-0.2c0.2-0.1,0.3-0.2,0.4-0.2c0.1-0.1,0.3-0.2,0.5-0.3l0.3-0.2l0,0
		c0,0,0,0,0.1,0c0,0,0.1,0.1,0.2,0.3c0.2,0.3,0.2,0.4,0.3,0.5c0.1,0.2,0.2,0.4,0.2,0.5c0,0.2-0.1,0.3-0.3,0.4c-0.1,0-0.1,0-0.2,0
		c-0.1,0-0.1,0-0.2,0c0,0-0.1,0-0.1,0c0,0,0,0,0,0.1c0,0.1,0,0.2-0.1,0.2C27,12.3,27,12.3,26.9,12.4z M26.6,11.9
		c0.1,0,0.1-0.1,0.1-0.2c0-0.1,0-0.1-0.1-0.2c-0.1-0.1-0.1-0.2-0.1-0.2c0,0-0.1,0-0.2,0.1c-0.1,0.1-0.1,0.1-0.2,0.1
		c0,0,0,0.1,0.1,0.2c0,0.1,0.1,0.1,0.1,0.2C26.5,11.9,26.6,11.9,26.6,11.9z M27.3,11.4c0.1,0,0.1-0.1,0.1-0.2c0-0.1-0.1-0.1-0.1-0.2
		c-0.1-0.1-0.1-0.1-0.1-0.1s0,0-0.1,0c0,0-0.1,0-0.1,0c-0.1,0.1-0.1,0.1-0.1,0.1c0,0.1,0,0.1,0.1,0.2C27.1,11.4,27.2,11.5,27.3,11.4
		z"/>
</g>
</svg>
